G75*
%MOIN*%
%OFA0B0*%
%FSLAX25Y25*%
%IPPOS*%
%LPD*%
%AMOC8*
5,1,8,0,0,1.08239X$1,22.5*
%
%ADD10C,0.06500*%
%ADD11R,0.06500X0.06500*%
%ADD12R,0.08000X0.08000*%
%ADD13C,0.08000*%
%ADD14C,0.07400*%
%ADD15C,0.05600*%
%ADD16C,0.01000*%
D10*
X0031000Y0026000D03*
X0031000Y0036000D03*
X0086000Y0036000D03*
X0086000Y0026000D03*
X0141000Y0026000D03*
X0141000Y0036000D03*
X0106000Y0103500D03*
X0126000Y0141000D03*
X0126000Y0151000D03*
D11*
X0096000Y0103500D03*
D12*
X0031000Y0151000D03*
X0166000Y0161000D03*
X0166000Y0108500D03*
D13*
X0166000Y0094720D03*
X0166000Y0147220D03*
X0031000Y0164780D03*
D14*
X0066000Y0156000D03*
X0106000Y0156000D03*
X0086000Y0051000D03*
X0071000Y0051000D03*
X0031000Y0051000D03*
X0126000Y0051000D03*
X0141000Y0051000D03*
X0181000Y0051000D03*
D15*
X0048500Y0088200D02*
X0048500Y0093800D01*
X0038500Y0093800D02*
X0038500Y0088200D01*
X0028500Y0088200D02*
X0028500Y0093800D01*
X0018500Y0093800D02*
X0018500Y0088200D01*
X0018500Y0118200D02*
X0018500Y0123800D01*
X0028500Y0123800D02*
X0028500Y0118200D01*
X0038500Y0118200D02*
X0038500Y0123800D01*
X0048500Y0123800D02*
X0048500Y0118200D01*
D16*
X0048500Y0121000D02*
X0047500Y0121000D01*
X0047500Y0142000D01*
X0125500Y0142000D01*
X0126000Y0141000D01*
X0127000Y0142000D01*
X0161500Y0142000D01*
X0166000Y0137500D01*
X0166000Y0108500D01*
X0158500Y0103000D02*
X0166000Y0095500D01*
X0166000Y0094720D01*
X0166000Y0094000D01*
X0181000Y0079000D01*
X0181000Y0051000D01*
X0142000Y0050500D02*
X0142000Y0037000D01*
X0141000Y0036000D01*
X0140500Y0026500D02*
X0141000Y0026000D01*
X0140500Y0026500D02*
X0086500Y0026500D01*
X0086000Y0026000D01*
X0085000Y0026500D01*
X0049000Y0026500D01*
X0049000Y0091000D01*
X0048500Y0091000D01*
X0049000Y0091000D02*
X0040000Y0100000D01*
X0047500Y0107500D01*
X0047500Y0121000D01*
X0029500Y0121000D02*
X0028500Y0121000D01*
X0029500Y0121000D02*
X0029500Y0149500D01*
X0031000Y0151000D01*
X0031000Y0164500D02*
X0031000Y0164780D01*
X0031000Y0164500D02*
X0047500Y0148000D01*
X0047500Y0142000D01*
X0040000Y0100000D02*
X0037000Y0100000D01*
X0032500Y0095500D01*
X0032500Y0094000D01*
X0029500Y0091000D01*
X0028500Y0091000D01*
X0038500Y0091000D02*
X0038500Y0059500D01*
X0031000Y0052000D01*
X0031000Y0051000D01*
X0031000Y0036000D01*
X0031000Y0026500D02*
X0031000Y0026000D01*
X0031000Y0026500D02*
X0049000Y0026500D01*
X0071000Y0051000D02*
X0071500Y0052000D01*
X0085000Y0052000D01*
X0086000Y0051000D01*
X0086500Y0050500D01*
X0086500Y0037000D01*
X0086000Y0036000D01*
X0126000Y0051000D02*
X0127000Y0052000D01*
X0140500Y0052000D01*
X0141000Y0051000D01*
X0142000Y0050500D01*
X0166000Y0095500D02*
X0173500Y0103000D01*
X0173500Y0149500D01*
X0166000Y0157000D01*
X0166000Y0161000D01*
X0166000Y0147220D02*
X0166000Y0146500D01*
X0161500Y0142000D01*
X0126000Y0151000D02*
X0110500Y0151000D01*
X0106000Y0155500D01*
X0106000Y0156000D01*
X0106000Y0103500D02*
X0106000Y0103000D01*
X0158500Y0103000D01*
M02*
