G75*
%MOIN*%
%OFA0B0*%
%FSLAX25Y25*%
%IPPOS*%
%LPD*%
%AMOC8*
5,1,8,0,0,1.08239X$1,22.5*
%
%ADD10C,0.00000*%
%ADD11C,0.00600*%
D10*
X0009701Y0011000D02*
X0009703Y0011158D01*
X0009709Y0011316D01*
X0009719Y0011474D01*
X0009733Y0011632D01*
X0009751Y0011789D01*
X0009772Y0011946D01*
X0009798Y0012102D01*
X0009828Y0012258D01*
X0009861Y0012413D01*
X0009899Y0012566D01*
X0009940Y0012719D01*
X0009985Y0012871D01*
X0010034Y0013022D01*
X0010087Y0013171D01*
X0010143Y0013319D01*
X0010203Y0013465D01*
X0010267Y0013610D01*
X0010335Y0013753D01*
X0010406Y0013895D01*
X0010480Y0014035D01*
X0010558Y0014172D01*
X0010640Y0014308D01*
X0010724Y0014442D01*
X0010813Y0014573D01*
X0010904Y0014702D01*
X0010999Y0014829D01*
X0011096Y0014954D01*
X0011197Y0015076D01*
X0011301Y0015195D01*
X0011408Y0015312D01*
X0011518Y0015426D01*
X0011631Y0015537D01*
X0011746Y0015646D01*
X0011864Y0015751D01*
X0011985Y0015853D01*
X0012108Y0015953D01*
X0012234Y0016049D01*
X0012362Y0016142D01*
X0012492Y0016232D01*
X0012625Y0016318D01*
X0012760Y0016402D01*
X0012896Y0016481D01*
X0013035Y0016558D01*
X0013176Y0016630D01*
X0013318Y0016700D01*
X0013462Y0016765D01*
X0013608Y0016827D01*
X0013755Y0016885D01*
X0013904Y0016940D01*
X0014054Y0016991D01*
X0014205Y0017038D01*
X0014357Y0017081D01*
X0014510Y0017120D01*
X0014665Y0017156D01*
X0014820Y0017187D01*
X0014976Y0017215D01*
X0015132Y0017239D01*
X0015289Y0017259D01*
X0015447Y0017275D01*
X0015604Y0017287D01*
X0015763Y0017295D01*
X0015921Y0017299D01*
X0016079Y0017299D01*
X0016237Y0017295D01*
X0016396Y0017287D01*
X0016553Y0017275D01*
X0016711Y0017259D01*
X0016868Y0017239D01*
X0017024Y0017215D01*
X0017180Y0017187D01*
X0017335Y0017156D01*
X0017490Y0017120D01*
X0017643Y0017081D01*
X0017795Y0017038D01*
X0017946Y0016991D01*
X0018096Y0016940D01*
X0018245Y0016885D01*
X0018392Y0016827D01*
X0018538Y0016765D01*
X0018682Y0016700D01*
X0018824Y0016630D01*
X0018965Y0016558D01*
X0019104Y0016481D01*
X0019240Y0016402D01*
X0019375Y0016318D01*
X0019508Y0016232D01*
X0019638Y0016142D01*
X0019766Y0016049D01*
X0019892Y0015953D01*
X0020015Y0015853D01*
X0020136Y0015751D01*
X0020254Y0015646D01*
X0020369Y0015537D01*
X0020482Y0015426D01*
X0020592Y0015312D01*
X0020699Y0015195D01*
X0020803Y0015076D01*
X0020904Y0014954D01*
X0021001Y0014829D01*
X0021096Y0014702D01*
X0021187Y0014573D01*
X0021276Y0014442D01*
X0021360Y0014308D01*
X0021442Y0014172D01*
X0021520Y0014035D01*
X0021594Y0013895D01*
X0021665Y0013753D01*
X0021733Y0013610D01*
X0021797Y0013465D01*
X0021857Y0013319D01*
X0021913Y0013171D01*
X0021966Y0013022D01*
X0022015Y0012871D01*
X0022060Y0012719D01*
X0022101Y0012566D01*
X0022139Y0012413D01*
X0022172Y0012258D01*
X0022202Y0012102D01*
X0022228Y0011946D01*
X0022249Y0011789D01*
X0022267Y0011632D01*
X0022281Y0011474D01*
X0022291Y0011316D01*
X0022297Y0011158D01*
X0022299Y0011000D01*
X0022297Y0010842D01*
X0022291Y0010684D01*
X0022281Y0010526D01*
X0022267Y0010368D01*
X0022249Y0010211D01*
X0022228Y0010054D01*
X0022202Y0009898D01*
X0022172Y0009742D01*
X0022139Y0009587D01*
X0022101Y0009434D01*
X0022060Y0009281D01*
X0022015Y0009129D01*
X0021966Y0008978D01*
X0021913Y0008829D01*
X0021857Y0008681D01*
X0021797Y0008535D01*
X0021733Y0008390D01*
X0021665Y0008247D01*
X0021594Y0008105D01*
X0021520Y0007965D01*
X0021442Y0007828D01*
X0021360Y0007692D01*
X0021276Y0007558D01*
X0021187Y0007427D01*
X0021096Y0007298D01*
X0021001Y0007171D01*
X0020904Y0007046D01*
X0020803Y0006924D01*
X0020699Y0006805D01*
X0020592Y0006688D01*
X0020482Y0006574D01*
X0020369Y0006463D01*
X0020254Y0006354D01*
X0020136Y0006249D01*
X0020015Y0006147D01*
X0019892Y0006047D01*
X0019766Y0005951D01*
X0019638Y0005858D01*
X0019508Y0005768D01*
X0019375Y0005682D01*
X0019240Y0005598D01*
X0019104Y0005519D01*
X0018965Y0005442D01*
X0018824Y0005370D01*
X0018682Y0005300D01*
X0018538Y0005235D01*
X0018392Y0005173D01*
X0018245Y0005115D01*
X0018096Y0005060D01*
X0017946Y0005009D01*
X0017795Y0004962D01*
X0017643Y0004919D01*
X0017490Y0004880D01*
X0017335Y0004844D01*
X0017180Y0004813D01*
X0017024Y0004785D01*
X0016868Y0004761D01*
X0016711Y0004741D01*
X0016553Y0004725D01*
X0016396Y0004713D01*
X0016237Y0004705D01*
X0016079Y0004701D01*
X0015921Y0004701D01*
X0015763Y0004705D01*
X0015604Y0004713D01*
X0015447Y0004725D01*
X0015289Y0004741D01*
X0015132Y0004761D01*
X0014976Y0004785D01*
X0014820Y0004813D01*
X0014665Y0004844D01*
X0014510Y0004880D01*
X0014357Y0004919D01*
X0014205Y0004962D01*
X0014054Y0005009D01*
X0013904Y0005060D01*
X0013755Y0005115D01*
X0013608Y0005173D01*
X0013462Y0005235D01*
X0013318Y0005300D01*
X0013176Y0005370D01*
X0013035Y0005442D01*
X0012896Y0005519D01*
X0012760Y0005598D01*
X0012625Y0005682D01*
X0012492Y0005768D01*
X0012362Y0005858D01*
X0012234Y0005951D01*
X0012108Y0006047D01*
X0011985Y0006147D01*
X0011864Y0006249D01*
X0011746Y0006354D01*
X0011631Y0006463D01*
X0011518Y0006574D01*
X0011408Y0006688D01*
X0011301Y0006805D01*
X0011197Y0006924D01*
X0011096Y0007046D01*
X0010999Y0007171D01*
X0010904Y0007298D01*
X0010813Y0007427D01*
X0010724Y0007558D01*
X0010640Y0007692D01*
X0010558Y0007828D01*
X0010480Y0007965D01*
X0010406Y0008105D01*
X0010335Y0008247D01*
X0010267Y0008390D01*
X0010203Y0008535D01*
X0010143Y0008681D01*
X0010087Y0008829D01*
X0010034Y0008978D01*
X0009985Y0009129D01*
X0009940Y0009281D01*
X0009899Y0009434D01*
X0009861Y0009587D01*
X0009828Y0009742D01*
X0009798Y0009898D01*
X0009772Y0010054D01*
X0009751Y0010211D01*
X0009733Y0010368D01*
X0009719Y0010526D01*
X0009709Y0010684D01*
X0009703Y0010842D01*
X0009701Y0011000D01*
X0004701Y0186000D02*
X0004703Y0186158D01*
X0004709Y0186316D01*
X0004719Y0186474D01*
X0004733Y0186632D01*
X0004751Y0186789D01*
X0004772Y0186946D01*
X0004798Y0187102D01*
X0004828Y0187258D01*
X0004861Y0187413D01*
X0004899Y0187566D01*
X0004940Y0187719D01*
X0004985Y0187871D01*
X0005034Y0188022D01*
X0005087Y0188171D01*
X0005143Y0188319D01*
X0005203Y0188465D01*
X0005267Y0188610D01*
X0005335Y0188753D01*
X0005406Y0188895D01*
X0005480Y0189035D01*
X0005558Y0189172D01*
X0005640Y0189308D01*
X0005724Y0189442D01*
X0005813Y0189573D01*
X0005904Y0189702D01*
X0005999Y0189829D01*
X0006096Y0189954D01*
X0006197Y0190076D01*
X0006301Y0190195D01*
X0006408Y0190312D01*
X0006518Y0190426D01*
X0006631Y0190537D01*
X0006746Y0190646D01*
X0006864Y0190751D01*
X0006985Y0190853D01*
X0007108Y0190953D01*
X0007234Y0191049D01*
X0007362Y0191142D01*
X0007492Y0191232D01*
X0007625Y0191318D01*
X0007760Y0191402D01*
X0007896Y0191481D01*
X0008035Y0191558D01*
X0008176Y0191630D01*
X0008318Y0191700D01*
X0008462Y0191765D01*
X0008608Y0191827D01*
X0008755Y0191885D01*
X0008904Y0191940D01*
X0009054Y0191991D01*
X0009205Y0192038D01*
X0009357Y0192081D01*
X0009510Y0192120D01*
X0009665Y0192156D01*
X0009820Y0192187D01*
X0009976Y0192215D01*
X0010132Y0192239D01*
X0010289Y0192259D01*
X0010447Y0192275D01*
X0010604Y0192287D01*
X0010763Y0192295D01*
X0010921Y0192299D01*
X0011079Y0192299D01*
X0011237Y0192295D01*
X0011396Y0192287D01*
X0011553Y0192275D01*
X0011711Y0192259D01*
X0011868Y0192239D01*
X0012024Y0192215D01*
X0012180Y0192187D01*
X0012335Y0192156D01*
X0012490Y0192120D01*
X0012643Y0192081D01*
X0012795Y0192038D01*
X0012946Y0191991D01*
X0013096Y0191940D01*
X0013245Y0191885D01*
X0013392Y0191827D01*
X0013538Y0191765D01*
X0013682Y0191700D01*
X0013824Y0191630D01*
X0013965Y0191558D01*
X0014104Y0191481D01*
X0014240Y0191402D01*
X0014375Y0191318D01*
X0014508Y0191232D01*
X0014638Y0191142D01*
X0014766Y0191049D01*
X0014892Y0190953D01*
X0015015Y0190853D01*
X0015136Y0190751D01*
X0015254Y0190646D01*
X0015369Y0190537D01*
X0015482Y0190426D01*
X0015592Y0190312D01*
X0015699Y0190195D01*
X0015803Y0190076D01*
X0015904Y0189954D01*
X0016001Y0189829D01*
X0016096Y0189702D01*
X0016187Y0189573D01*
X0016276Y0189442D01*
X0016360Y0189308D01*
X0016442Y0189172D01*
X0016520Y0189035D01*
X0016594Y0188895D01*
X0016665Y0188753D01*
X0016733Y0188610D01*
X0016797Y0188465D01*
X0016857Y0188319D01*
X0016913Y0188171D01*
X0016966Y0188022D01*
X0017015Y0187871D01*
X0017060Y0187719D01*
X0017101Y0187566D01*
X0017139Y0187413D01*
X0017172Y0187258D01*
X0017202Y0187102D01*
X0017228Y0186946D01*
X0017249Y0186789D01*
X0017267Y0186632D01*
X0017281Y0186474D01*
X0017291Y0186316D01*
X0017297Y0186158D01*
X0017299Y0186000D01*
X0017297Y0185842D01*
X0017291Y0185684D01*
X0017281Y0185526D01*
X0017267Y0185368D01*
X0017249Y0185211D01*
X0017228Y0185054D01*
X0017202Y0184898D01*
X0017172Y0184742D01*
X0017139Y0184587D01*
X0017101Y0184434D01*
X0017060Y0184281D01*
X0017015Y0184129D01*
X0016966Y0183978D01*
X0016913Y0183829D01*
X0016857Y0183681D01*
X0016797Y0183535D01*
X0016733Y0183390D01*
X0016665Y0183247D01*
X0016594Y0183105D01*
X0016520Y0182965D01*
X0016442Y0182828D01*
X0016360Y0182692D01*
X0016276Y0182558D01*
X0016187Y0182427D01*
X0016096Y0182298D01*
X0016001Y0182171D01*
X0015904Y0182046D01*
X0015803Y0181924D01*
X0015699Y0181805D01*
X0015592Y0181688D01*
X0015482Y0181574D01*
X0015369Y0181463D01*
X0015254Y0181354D01*
X0015136Y0181249D01*
X0015015Y0181147D01*
X0014892Y0181047D01*
X0014766Y0180951D01*
X0014638Y0180858D01*
X0014508Y0180768D01*
X0014375Y0180682D01*
X0014240Y0180598D01*
X0014104Y0180519D01*
X0013965Y0180442D01*
X0013824Y0180370D01*
X0013682Y0180300D01*
X0013538Y0180235D01*
X0013392Y0180173D01*
X0013245Y0180115D01*
X0013096Y0180060D01*
X0012946Y0180009D01*
X0012795Y0179962D01*
X0012643Y0179919D01*
X0012490Y0179880D01*
X0012335Y0179844D01*
X0012180Y0179813D01*
X0012024Y0179785D01*
X0011868Y0179761D01*
X0011711Y0179741D01*
X0011553Y0179725D01*
X0011396Y0179713D01*
X0011237Y0179705D01*
X0011079Y0179701D01*
X0010921Y0179701D01*
X0010763Y0179705D01*
X0010604Y0179713D01*
X0010447Y0179725D01*
X0010289Y0179741D01*
X0010132Y0179761D01*
X0009976Y0179785D01*
X0009820Y0179813D01*
X0009665Y0179844D01*
X0009510Y0179880D01*
X0009357Y0179919D01*
X0009205Y0179962D01*
X0009054Y0180009D01*
X0008904Y0180060D01*
X0008755Y0180115D01*
X0008608Y0180173D01*
X0008462Y0180235D01*
X0008318Y0180300D01*
X0008176Y0180370D01*
X0008035Y0180442D01*
X0007896Y0180519D01*
X0007760Y0180598D01*
X0007625Y0180682D01*
X0007492Y0180768D01*
X0007362Y0180858D01*
X0007234Y0180951D01*
X0007108Y0181047D01*
X0006985Y0181147D01*
X0006864Y0181249D01*
X0006746Y0181354D01*
X0006631Y0181463D01*
X0006518Y0181574D01*
X0006408Y0181688D01*
X0006301Y0181805D01*
X0006197Y0181924D01*
X0006096Y0182046D01*
X0005999Y0182171D01*
X0005904Y0182298D01*
X0005813Y0182427D01*
X0005724Y0182558D01*
X0005640Y0182692D01*
X0005558Y0182828D01*
X0005480Y0182965D01*
X0005406Y0183105D01*
X0005335Y0183247D01*
X0005267Y0183390D01*
X0005203Y0183535D01*
X0005143Y0183681D01*
X0005087Y0183829D01*
X0005034Y0183978D01*
X0004985Y0184129D01*
X0004940Y0184281D01*
X0004899Y0184434D01*
X0004861Y0184587D01*
X0004828Y0184742D01*
X0004798Y0184898D01*
X0004772Y0185054D01*
X0004751Y0185211D01*
X0004733Y0185368D01*
X0004719Y0185526D01*
X0004709Y0185684D01*
X0004703Y0185842D01*
X0004701Y0186000D01*
X0001000Y0195961D02*
X0197201Y0195961D01*
X0179701Y0186000D02*
X0179703Y0186158D01*
X0179709Y0186316D01*
X0179719Y0186474D01*
X0179733Y0186632D01*
X0179751Y0186789D01*
X0179772Y0186946D01*
X0179798Y0187102D01*
X0179828Y0187258D01*
X0179861Y0187413D01*
X0179899Y0187566D01*
X0179940Y0187719D01*
X0179985Y0187871D01*
X0180034Y0188022D01*
X0180087Y0188171D01*
X0180143Y0188319D01*
X0180203Y0188465D01*
X0180267Y0188610D01*
X0180335Y0188753D01*
X0180406Y0188895D01*
X0180480Y0189035D01*
X0180558Y0189172D01*
X0180640Y0189308D01*
X0180724Y0189442D01*
X0180813Y0189573D01*
X0180904Y0189702D01*
X0180999Y0189829D01*
X0181096Y0189954D01*
X0181197Y0190076D01*
X0181301Y0190195D01*
X0181408Y0190312D01*
X0181518Y0190426D01*
X0181631Y0190537D01*
X0181746Y0190646D01*
X0181864Y0190751D01*
X0181985Y0190853D01*
X0182108Y0190953D01*
X0182234Y0191049D01*
X0182362Y0191142D01*
X0182492Y0191232D01*
X0182625Y0191318D01*
X0182760Y0191402D01*
X0182896Y0191481D01*
X0183035Y0191558D01*
X0183176Y0191630D01*
X0183318Y0191700D01*
X0183462Y0191765D01*
X0183608Y0191827D01*
X0183755Y0191885D01*
X0183904Y0191940D01*
X0184054Y0191991D01*
X0184205Y0192038D01*
X0184357Y0192081D01*
X0184510Y0192120D01*
X0184665Y0192156D01*
X0184820Y0192187D01*
X0184976Y0192215D01*
X0185132Y0192239D01*
X0185289Y0192259D01*
X0185447Y0192275D01*
X0185604Y0192287D01*
X0185763Y0192295D01*
X0185921Y0192299D01*
X0186079Y0192299D01*
X0186237Y0192295D01*
X0186396Y0192287D01*
X0186553Y0192275D01*
X0186711Y0192259D01*
X0186868Y0192239D01*
X0187024Y0192215D01*
X0187180Y0192187D01*
X0187335Y0192156D01*
X0187490Y0192120D01*
X0187643Y0192081D01*
X0187795Y0192038D01*
X0187946Y0191991D01*
X0188096Y0191940D01*
X0188245Y0191885D01*
X0188392Y0191827D01*
X0188538Y0191765D01*
X0188682Y0191700D01*
X0188824Y0191630D01*
X0188965Y0191558D01*
X0189104Y0191481D01*
X0189240Y0191402D01*
X0189375Y0191318D01*
X0189508Y0191232D01*
X0189638Y0191142D01*
X0189766Y0191049D01*
X0189892Y0190953D01*
X0190015Y0190853D01*
X0190136Y0190751D01*
X0190254Y0190646D01*
X0190369Y0190537D01*
X0190482Y0190426D01*
X0190592Y0190312D01*
X0190699Y0190195D01*
X0190803Y0190076D01*
X0190904Y0189954D01*
X0191001Y0189829D01*
X0191096Y0189702D01*
X0191187Y0189573D01*
X0191276Y0189442D01*
X0191360Y0189308D01*
X0191442Y0189172D01*
X0191520Y0189035D01*
X0191594Y0188895D01*
X0191665Y0188753D01*
X0191733Y0188610D01*
X0191797Y0188465D01*
X0191857Y0188319D01*
X0191913Y0188171D01*
X0191966Y0188022D01*
X0192015Y0187871D01*
X0192060Y0187719D01*
X0192101Y0187566D01*
X0192139Y0187413D01*
X0192172Y0187258D01*
X0192202Y0187102D01*
X0192228Y0186946D01*
X0192249Y0186789D01*
X0192267Y0186632D01*
X0192281Y0186474D01*
X0192291Y0186316D01*
X0192297Y0186158D01*
X0192299Y0186000D01*
X0192297Y0185842D01*
X0192291Y0185684D01*
X0192281Y0185526D01*
X0192267Y0185368D01*
X0192249Y0185211D01*
X0192228Y0185054D01*
X0192202Y0184898D01*
X0192172Y0184742D01*
X0192139Y0184587D01*
X0192101Y0184434D01*
X0192060Y0184281D01*
X0192015Y0184129D01*
X0191966Y0183978D01*
X0191913Y0183829D01*
X0191857Y0183681D01*
X0191797Y0183535D01*
X0191733Y0183390D01*
X0191665Y0183247D01*
X0191594Y0183105D01*
X0191520Y0182965D01*
X0191442Y0182828D01*
X0191360Y0182692D01*
X0191276Y0182558D01*
X0191187Y0182427D01*
X0191096Y0182298D01*
X0191001Y0182171D01*
X0190904Y0182046D01*
X0190803Y0181924D01*
X0190699Y0181805D01*
X0190592Y0181688D01*
X0190482Y0181574D01*
X0190369Y0181463D01*
X0190254Y0181354D01*
X0190136Y0181249D01*
X0190015Y0181147D01*
X0189892Y0181047D01*
X0189766Y0180951D01*
X0189638Y0180858D01*
X0189508Y0180768D01*
X0189375Y0180682D01*
X0189240Y0180598D01*
X0189104Y0180519D01*
X0188965Y0180442D01*
X0188824Y0180370D01*
X0188682Y0180300D01*
X0188538Y0180235D01*
X0188392Y0180173D01*
X0188245Y0180115D01*
X0188096Y0180060D01*
X0187946Y0180009D01*
X0187795Y0179962D01*
X0187643Y0179919D01*
X0187490Y0179880D01*
X0187335Y0179844D01*
X0187180Y0179813D01*
X0187024Y0179785D01*
X0186868Y0179761D01*
X0186711Y0179741D01*
X0186553Y0179725D01*
X0186396Y0179713D01*
X0186237Y0179705D01*
X0186079Y0179701D01*
X0185921Y0179701D01*
X0185763Y0179705D01*
X0185604Y0179713D01*
X0185447Y0179725D01*
X0185289Y0179741D01*
X0185132Y0179761D01*
X0184976Y0179785D01*
X0184820Y0179813D01*
X0184665Y0179844D01*
X0184510Y0179880D01*
X0184357Y0179919D01*
X0184205Y0179962D01*
X0184054Y0180009D01*
X0183904Y0180060D01*
X0183755Y0180115D01*
X0183608Y0180173D01*
X0183462Y0180235D01*
X0183318Y0180300D01*
X0183176Y0180370D01*
X0183035Y0180442D01*
X0182896Y0180519D01*
X0182760Y0180598D01*
X0182625Y0180682D01*
X0182492Y0180768D01*
X0182362Y0180858D01*
X0182234Y0180951D01*
X0182108Y0181047D01*
X0181985Y0181147D01*
X0181864Y0181249D01*
X0181746Y0181354D01*
X0181631Y0181463D01*
X0181518Y0181574D01*
X0181408Y0181688D01*
X0181301Y0181805D01*
X0181197Y0181924D01*
X0181096Y0182046D01*
X0180999Y0182171D01*
X0180904Y0182298D01*
X0180813Y0182427D01*
X0180724Y0182558D01*
X0180640Y0182692D01*
X0180558Y0182828D01*
X0180480Y0182965D01*
X0180406Y0183105D01*
X0180335Y0183247D01*
X0180267Y0183390D01*
X0180203Y0183535D01*
X0180143Y0183681D01*
X0180087Y0183829D01*
X0180034Y0183978D01*
X0179985Y0184129D01*
X0179940Y0184281D01*
X0179899Y0184434D01*
X0179861Y0184587D01*
X0179828Y0184742D01*
X0179798Y0184898D01*
X0179772Y0185054D01*
X0179751Y0185211D01*
X0179733Y0185368D01*
X0179719Y0185526D01*
X0179709Y0185684D01*
X0179703Y0185842D01*
X0179701Y0186000D01*
X0179701Y0011000D02*
X0179703Y0011158D01*
X0179709Y0011316D01*
X0179719Y0011474D01*
X0179733Y0011632D01*
X0179751Y0011789D01*
X0179772Y0011946D01*
X0179798Y0012102D01*
X0179828Y0012258D01*
X0179861Y0012413D01*
X0179899Y0012566D01*
X0179940Y0012719D01*
X0179985Y0012871D01*
X0180034Y0013022D01*
X0180087Y0013171D01*
X0180143Y0013319D01*
X0180203Y0013465D01*
X0180267Y0013610D01*
X0180335Y0013753D01*
X0180406Y0013895D01*
X0180480Y0014035D01*
X0180558Y0014172D01*
X0180640Y0014308D01*
X0180724Y0014442D01*
X0180813Y0014573D01*
X0180904Y0014702D01*
X0180999Y0014829D01*
X0181096Y0014954D01*
X0181197Y0015076D01*
X0181301Y0015195D01*
X0181408Y0015312D01*
X0181518Y0015426D01*
X0181631Y0015537D01*
X0181746Y0015646D01*
X0181864Y0015751D01*
X0181985Y0015853D01*
X0182108Y0015953D01*
X0182234Y0016049D01*
X0182362Y0016142D01*
X0182492Y0016232D01*
X0182625Y0016318D01*
X0182760Y0016402D01*
X0182896Y0016481D01*
X0183035Y0016558D01*
X0183176Y0016630D01*
X0183318Y0016700D01*
X0183462Y0016765D01*
X0183608Y0016827D01*
X0183755Y0016885D01*
X0183904Y0016940D01*
X0184054Y0016991D01*
X0184205Y0017038D01*
X0184357Y0017081D01*
X0184510Y0017120D01*
X0184665Y0017156D01*
X0184820Y0017187D01*
X0184976Y0017215D01*
X0185132Y0017239D01*
X0185289Y0017259D01*
X0185447Y0017275D01*
X0185604Y0017287D01*
X0185763Y0017295D01*
X0185921Y0017299D01*
X0186079Y0017299D01*
X0186237Y0017295D01*
X0186396Y0017287D01*
X0186553Y0017275D01*
X0186711Y0017259D01*
X0186868Y0017239D01*
X0187024Y0017215D01*
X0187180Y0017187D01*
X0187335Y0017156D01*
X0187490Y0017120D01*
X0187643Y0017081D01*
X0187795Y0017038D01*
X0187946Y0016991D01*
X0188096Y0016940D01*
X0188245Y0016885D01*
X0188392Y0016827D01*
X0188538Y0016765D01*
X0188682Y0016700D01*
X0188824Y0016630D01*
X0188965Y0016558D01*
X0189104Y0016481D01*
X0189240Y0016402D01*
X0189375Y0016318D01*
X0189508Y0016232D01*
X0189638Y0016142D01*
X0189766Y0016049D01*
X0189892Y0015953D01*
X0190015Y0015853D01*
X0190136Y0015751D01*
X0190254Y0015646D01*
X0190369Y0015537D01*
X0190482Y0015426D01*
X0190592Y0015312D01*
X0190699Y0015195D01*
X0190803Y0015076D01*
X0190904Y0014954D01*
X0191001Y0014829D01*
X0191096Y0014702D01*
X0191187Y0014573D01*
X0191276Y0014442D01*
X0191360Y0014308D01*
X0191442Y0014172D01*
X0191520Y0014035D01*
X0191594Y0013895D01*
X0191665Y0013753D01*
X0191733Y0013610D01*
X0191797Y0013465D01*
X0191857Y0013319D01*
X0191913Y0013171D01*
X0191966Y0013022D01*
X0192015Y0012871D01*
X0192060Y0012719D01*
X0192101Y0012566D01*
X0192139Y0012413D01*
X0192172Y0012258D01*
X0192202Y0012102D01*
X0192228Y0011946D01*
X0192249Y0011789D01*
X0192267Y0011632D01*
X0192281Y0011474D01*
X0192291Y0011316D01*
X0192297Y0011158D01*
X0192299Y0011000D01*
X0192297Y0010842D01*
X0192291Y0010684D01*
X0192281Y0010526D01*
X0192267Y0010368D01*
X0192249Y0010211D01*
X0192228Y0010054D01*
X0192202Y0009898D01*
X0192172Y0009742D01*
X0192139Y0009587D01*
X0192101Y0009434D01*
X0192060Y0009281D01*
X0192015Y0009129D01*
X0191966Y0008978D01*
X0191913Y0008829D01*
X0191857Y0008681D01*
X0191797Y0008535D01*
X0191733Y0008390D01*
X0191665Y0008247D01*
X0191594Y0008105D01*
X0191520Y0007965D01*
X0191442Y0007828D01*
X0191360Y0007692D01*
X0191276Y0007558D01*
X0191187Y0007427D01*
X0191096Y0007298D01*
X0191001Y0007171D01*
X0190904Y0007046D01*
X0190803Y0006924D01*
X0190699Y0006805D01*
X0190592Y0006688D01*
X0190482Y0006574D01*
X0190369Y0006463D01*
X0190254Y0006354D01*
X0190136Y0006249D01*
X0190015Y0006147D01*
X0189892Y0006047D01*
X0189766Y0005951D01*
X0189638Y0005858D01*
X0189508Y0005768D01*
X0189375Y0005682D01*
X0189240Y0005598D01*
X0189104Y0005519D01*
X0188965Y0005442D01*
X0188824Y0005370D01*
X0188682Y0005300D01*
X0188538Y0005235D01*
X0188392Y0005173D01*
X0188245Y0005115D01*
X0188096Y0005060D01*
X0187946Y0005009D01*
X0187795Y0004962D01*
X0187643Y0004919D01*
X0187490Y0004880D01*
X0187335Y0004844D01*
X0187180Y0004813D01*
X0187024Y0004785D01*
X0186868Y0004761D01*
X0186711Y0004741D01*
X0186553Y0004725D01*
X0186396Y0004713D01*
X0186237Y0004705D01*
X0186079Y0004701D01*
X0185921Y0004701D01*
X0185763Y0004705D01*
X0185604Y0004713D01*
X0185447Y0004725D01*
X0185289Y0004741D01*
X0185132Y0004761D01*
X0184976Y0004785D01*
X0184820Y0004813D01*
X0184665Y0004844D01*
X0184510Y0004880D01*
X0184357Y0004919D01*
X0184205Y0004962D01*
X0184054Y0005009D01*
X0183904Y0005060D01*
X0183755Y0005115D01*
X0183608Y0005173D01*
X0183462Y0005235D01*
X0183318Y0005300D01*
X0183176Y0005370D01*
X0183035Y0005442D01*
X0182896Y0005519D01*
X0182760Y0005598D01*
X0182625Y0005682D01*
X0182492Y0005768D01*
X0182362Y0005858D01*
X0182234Y0005951D01*
X0182108Y0006047D01*
X0181985Y0006147D01*
X0181864Y0006249D01*
X0181746Y0006354D01*
X0181631Y0006463D01*
X0181518Y0006574D01*
X0181408Y0006688D01*
X0181301Y0006805D01*
X0181197Y0006924D01*
X0181096Y0007046D01*
X0180999Y0007171D01*
X0180904Y0007298D01*
X0180813Y0007427D01*
X0180724Y0007558D01*
X0180640Y0007692D01*
X0180558Y0007828D01*
X0180480Y0007965D01*
X0180406Y0008105D01*
X0180335Y0008247D01*
X0180267Y0008390D01*
X0180203Y0008535D01*
X0180143Y0008681D01*
X0180087Y0008829D01*
X0180034Y0008978D01*
X0179985Y0009129D01*
X0179940Y0009281D01*
X0179899Y0009434D01*
X0179861Y0009587D01*
X0179828Y0009742D01*
X0179798Y0009898D01*
X0179772Y0010054D01*
X0179751Y0010211D01*
X0179733Y0010368D01*
X0179719Y0010526D01*
X0179709Y0010684D01*
X0179703Y0010842D01*
X0179701Y0011000D01*
D11*
X0175700Y0178800D02*
X0175700Y0183204D01*
X0173498Y0183204D01*
X0172764Y0182470D01*
X0172764Y0181002D01*
X0173498Y0180268D01*
X0175700Y0180268D01*
X0171096Y0180268D02*
X0168160Y0180268D01*
X0168160Y0181002D01*
X0168894Y0181736D01*
X0170362Y0181736D01*
X0171096Y0181002D01*
X0171096Y0179534D01*
X0170362Y0178800D01*
X0168894Y0178800D01*
X0166492Y0178800D02*
X0166492Y0181736D01*
X0166492Y0180268D02*
X0165024Y0181736D01*
X0164290Y0181736D01*
X0162656Y0181002D02*
X0161922Y0180268D01*
X0160454Y0180268D01*
X0159720Y0179534D01*
X0160454Y0178800D01*
X0162656Y0178800D01*
X0162656Y0181002D02*
X0161922Y0181736D01*
X0159720Y0181736D01*
X0158052Y0181002D02*
X0158052Y0179534D01*
X0157318Y0178800D01*
X0155850Y0178800D01*
X0155116Y0179534D01*
X0155116Y0181002D01*
X0155850Y0181736D01*
X0157318Y0181736D01*
X0158052Y0181002D01*
X0153448Y0181736D02*
X0153448Y0178800D01*
X0153448Y0181736D02*
X0151246Y0181736D01*
X0150512Y0181002D01*
X0150512Y0178800D01*
X0148844Y0179534D02*
X0148110Y0180268D01*
X0145908Y0180268D01*
X0145908Y0181002D02*
X0145908Y0178800D01*
X0148110Y0178800D01*
X0148844Y0179534D01*
X0148110Y0181736D02*
X0146642Y0181736D01*
X0145908Y0181002D01*
X0144240Y0178800D02*
X0142772Y0178800D01*
X0143506Y0178800D02*
X0143506Y0183204D01*
X0144240Y0183204D01*
X0145007Y0186300D02*
X0145007Y0189236D01*
X0142805Y0189236D01*
X0142071Y0188502D01*
X0142071Y0186300D01*
X0146675Y0186300D02*
X0148877Y0186300D01*
X0149611Y0187034D01*
X0148877Y0187768D01*
X0146675Y0187768D01*
X0146675Y0188502D02*
X0146675Y0186300D01*
X0146675Y0188502D02*
X0147409Y0189236D01*
X0148877Y0189236D01*
X0151279Y0188502D02*
X0151279Y0186300D01*
X0151279Y0188502D02*
X0152013Y0189236D01*
X0153481Y0189236D01*
X0154215Y0188502D01*
X0155816Y0189236D02*
X0157284Y0189236D01*
X0156550Y0189970D02*
X0156550Y0187034D01*
X0155816Y0186300D01*
X0154215Y0186300D02*
X0154215Y0190704D01*
X0158952Y0188502D02*
X0158952Y0186300D01*
X0161154Y0186300D01*
X0161888Y0187034D01*
X0161154Y0187768D01*
X0158952Y0187768D01*
X0158952Y0188502D02*
X0159686Y0189236D01*
X0161154Y0189236D01*
X0163556Y0188502D02*
X0163556Y0186300D01*
X0163556Y0188502D02*
X0164290Y0189236D01*
X0166492Y0189236D01*
X0166492Y0186300D01*
X0168160Y0187034D02*
X0168160Y0188502D01*
X0168894Y0189236D01*
X0170362Y0189236D01*
X0171096Y0188502D01*
X0171096Y0187034D01*
X0170362Y0186300D01*
X0168894Y0186300D01*
X0168160Y0187034D01*
X0173498Y0187034D02*
X0173498Y0190704D01*
X0174232Y0190704D02*
X0172764Y0190704D01*
X0173498Y0187034D02*
X0174232Y0186300D01*
X0174966Y0186300D01*
X0175700Y0187034D01*
X0136567Y0183204D02*
X0136567Y0178800D01*
X0134365Y0178800D01*
X0133631Y0179534D01*
X0133631Y0180268D01*
X0134365Y0181002D01*
X0136567Y0181002D01*
X0134365Y0181002D02*
X0133631Y0181736D01*
X0133631Y0182470D01*
X0134365Y0183204D01*
X0136567Y0183204D01*
X0135799Y0186300D02*
X0135799Y0190704D01*
X0135799Y0188502D02*
X0132863Y0188502D01*
X0131195Y0189236D02*
X0131195Y0187034D01*
X0130461Y0186300D01*
X0128260Y0186300D01*
X0128260Y0189236D01*
X0126591Y0190704D02*
X0125858Y0190704D01*
X0125858Y0186300D01*
X0126591Y0186300D02*
X0125124Y0186300D01*
X0123522Y0186300D02*
X0122054Y0186300D01*
X0122788Y0186300D02*
X0122788Y0190704D01*
X0123522Y0190704D01*
X0119719Y0187034D02*
X0119719Y0186300D01*
X0118985Y0186300D01*
X0118985Y0187034D01*
X0119719Y0187034D01*
X0118985Y0186300D02*
X0120453Y0184832D01*
X0119686Y0181736D02*
X0117484Y0181736D01*
X0116750Y0181002D01*
X0116750Y0178800D01*
X0115082Y0179534D02*
X0114348Y0178800D01*
X0112146Y0178800D01*
X0112146Y0178066D02*
X0112146Y0181736D01*
X0114348Y0181736D01*
X0115082Y0181002D01*
X0115082Y0179534D01*
X0113614Y0177332D02*
X0112880Y0177332D01*
X0112146Y0178066D01*
X0110478Y0178800D02*
X0109010Y0178800D01*
X0109744Y0178800D02*
X0109744Y0181736D01*
X0110478Y0181736D01*
X0109744Y0183204D02*
X0109744Y0183938D01*
X0109844Y0186300D02*
X0112780Y0186300D01*
X0112780Y0190704D01*
X0109844Y0190704D01*
X0108176Y0190704D02*
X0105240Y0186300D01*
X0105240Y0190704D01*
X0103572Y0189970D02*
X0103572Y0187034D01*
X0102838Y0186300D01*
X0101370Y0186300D01*
X0100636Y0187034D01*
X0100636Y0188502D01*
X0102104Y0188502D01*
X0103572Y0189970D02*
X0102838Y0190704D01*
X0101370Y0190704D01*
X0100636Y0189970D01*
X0098968Y0190704D02*
X0096766Y0190704D01*
X0096032Y0189970D01*
X0096032Y0188502D01*
X0096766Y0187768D01*
X0098968Y0187768D01*
X0097500Y0187768D02*
X0096032Y0186300D01*
X0094364Y0186300D02*
X0091428Y0186300D01*
X0092896Y0186300D02*
X0092896Y0190704D01*
X0094364Y0189236D01*
X0089760Y0189970D02*
X0089026Y0190704D01*
X0087558Y0190704D01*
X0086824Y0189970D01*
X0086824Y0189236D01*
X0089760Y0186300D01*
X0086824Y0186300D01*
X0085156Y0186300D02*
X0082220Y0186300D01*
X0080552Y0184832D02*
X0079084Y0186300D01*
X0079818Y0186300D01*
X0079818Y0187034D01*
X0079084Y0187034D01*
X0079084Y0186300D01*
X0079051Y0181736D02*
X0076849Y0181736D01*
X0075181Y0181736D02*
X0075181Y0179534D01*
X0074447Y0178800D01*
X0072245Y0178800D01*
X0072245Y0181736D01*
X0070577Y0181736D02*
X0070577Y0178800D01*
X0070577Y0180268D02*
X0069109Y0181736D01*
X0068375Y0181736D01*
X0066740Y0181736D02*
X0066007Y0181736D01*
X0066007Y0178800D01*
X0066740Y0178800D02*
X0065273Y0178800D01*
X0062937Y0179534D02*
X0062203Y0178800D01*
X0062937Y0179534D02*
X0062937Y0182470D01*
X0063671Y0181736D02*
X0062203Y0181736D01*
X0060602Y0181736D02*
X0060602Y0179534D01*
X0059868Y0178800D01*
X0057666Y0178800D01*
X0057666Y0178066D02*
X0058400Y0177332D01*
X0059134Y0177332D01*
X0057666Y0178066D02*
X0057666Y0181736D01*
X0058367Y0186300D02*
X0059835Y0186300D01*
X0059101Y0186300D02*
X0059101Y0189236D01*
X0059835Y0189236D01*
X0061469Y0189236D02*
X0062203Y0189236D01*
X0063671Y0187768D01*
X0063671Y0186300D02*
X0063671Y0189236D01*
X0065339Y0188502D02*
X0065339Y0187034D01*
X0066073Y0186300D01*
X0068275Y0186300D01*
X0068275Y0184832D02*
X0068275Y0189236D01*
X0066073Y0189236D01*
X0065339Y0188502D01*
X0066007Y0183938D02*
X0066007Y0183204D01*
X0069943Y0187034D02*
X0069943Y0187768D01*
X0070677Y0188502D01*
X0072145Y0188502D01*
X0072879Y0189236D01*
X0072879Y0189970D01*
X0072145Y0190704D01*
X0070677Y0190704D01*
X0069943Y0189970D01*
X0069943Y0187034D02*
X0070677Y0186300D01*
X0072145Y0186300D01*
X0072879Y0187034D01*
X0079051Y0181736D02*
X0079785Y0181002D01*
X0079785Y0179534D01*
X0079051Y0178800D01*
X0076849Y0178800D01*
X0081453Y0180268D02*
X0084389Y0180268D01*
X0084389Y0181002D02*
X0083655Y0181736D01*
X0082187Y0181736D01*
X0081453Y0181002D01*
X0081453Y0180268D01*
X0082187Y0178800D02*
X0083655Y0178800D01*
X0084389Y0179534D01*
X0084389Y0181002D01*
X0086057Y0180268D02*
X0086057Y0179534D01*
X0086791Y0178800D01*
X0088259Y0178800D01*
X0088993Y0179534D01*
X0088259Y0181002D02*
X0086791Y0181002D01*
X0086057Y0180268D01*
X0086057Y0182470D02*
X0086791Y0183204D01*
X0088259Y0183204D01*
X0088993Y0182470D01*
X0088993Y0181736D01*
X0088259Y0181002D01*
X0085156Y0186300D02*
X0085156Y0190704D01*
X0095265Y0181736D02*
X0097467Y0181736D01*
X0098201Y0181002D01*
X0097467Y0180268D01*
X0095999Y0180268D01*
X0095265Y0179534D01*
X0095999Y0178800D01*
X0098201Y0178800D01*
X0099869Y0178800D02*
X0102071Y0178800D01*
X0102805Y0179534D01*
X0102805Y0181002D01*
X0102071Y0181736D01*
X0099869Y0181736D01*
X0099869Y0178066D01*
X0100603Y0177332D01*
X0101337Y0177332D01*
X0104473Y0178800D02*
X0104473Y0181002D01*
X0105207Y0181736D01*
X0107408Y0181736D01*
X0107408Y0178800D01*
X0108176Y0186300D02*
X0108176Y0190704D01*
X0111312Y0188502D02*
X0112780Y0188502D01*
X0119686Y0181736D02*
X0119686Y0178800D01*
X0121354Y0179534D02*
X0121354Y0181002D01*
X0122088Y0181736D01*
X0123556Y0181736D01*
X0124290Y0181002D01*
X0124290Y0179534D01*
X0123556Y0178800D01*
X0122088Y0178800D01*
X0121354Y0179534D01*
X0125891Y0178800D02*
X0127359Y0178800D01*
X0126625Y0178800D02*
X0126625Y0183204D01*
X0127359Y0183204D01*
X0129027Y0181002D02*
X0129761Y0181736D01*
X0131229Y0181736D01*
X0131963Y0181002D01*
X0131963Y0179534D01*
X0131229Y0178800D01*
X0129761Y0178800D01*
X0129027Y0180268D02*
X0131963Y0180268D01*
X0129027Y0180268D02*
X0129027Y0181002D01*
X0132863Y0186300D02*
X0132863Y0190704D01*
X0098968Y0190704D02*
X0098968Y0186300D01*
X0059101Y0190704D02*
X0059101Y0191438D01*
X0056765Y0189236D02*
X0054563Y0189236D01*
X0053829Y0188502D01*
X0053829Y0186300D01*
X0052161Y0187034D02*
X0052161Y0188502D01*
X0051427Y0189236D01*
X0049226Y0189236D01*
X0049226Y0185566D01*
X0049960Y0184832D01*
X0050693Y0184832D01*
X0051427Y0186300D02*
X0049226Y0186300D01*
X0051427Y0186300D02*
X0052161Y0187034D01*
X0049926Y0183204D02*
X0048458Y0181736D01*
X0048458Y0178800D01*
X0046790Y0178800D02*
X0045322Y0178800D01*
X0046056Y0178800D02*
X0046056Y0183204D01*
X0046790Y0183204D01*
X0048458Y0181002D02*
X0051394Y0181002D01*
X0051394Y0181736D02*
X0051394Y0178800D01*
X0051394Y0181736D02*
X0049926Y0183204D01*
X0043721Y0179534D02*
X0042987Y0180268D01*
X0040785Y0180268D01*
X0040785Y0181002D02*
X0040785Y0178800D01*
X0042987Y0178800D01*
X0043721Y0179534D01*
X0042987Y0181736D02*
X0041519Y0181736D01*
X0040785Y0181002D01*
X0039117Y0181736D02*
X0039117Y0178800D01*
X0039117Y0180268D02*
X0037649Y0181736D01*
X0036915Y0181736D01*
X0035280Y0181736D02*
X0034546Y0181736D01*
X0033812Y0181002D01*
X0033078Y0181736D01*
X0032344Y0181002D01*
X0032344Y0178800D01*
X0033812Y0178800D02*
X0033812Y0181002D01*
X0035280Y0181736D02*
X0035280Y0178800D01*
X0036148Y0186300D02*
X0035414Y0187034D01*
X0035414Y0189970D01*
X0038350Y0187034D01*
X0037616Y0186300D01*
X0036148Y0186300D01*
X0038350Y0187034D02*
X0038350Y0189970D01*
X0037616Y0190704D01*
X0036148Y0190704D01*
X0035414Y0189970D01*
X0033746Y0189236D02*
X0032278Y0190704D01*
X0032278Y0186300D01*
X0033746Y0186300D02*
X0030810Y0186300D01*
X0029142Y0187034D02*
X0029142Y0188502D01*
X0026940Y0188502D01*
X0026206Y0187768D01*
X0026206Y0187034D01*
X0026940Y0186300D01*
X0028408Y0186300D01*
X0029142Y0187034D01*
X0029142Y0188502D02*
X0027674Y0189970D01*
X0026206Y0190704D01*
X0040018Y0189970D02*
X0040752Y0190704D01*
X0042220Y0190704D01*
X0042954Y0189970D01*
X0040018Y0189970D02*
X0040018Y0189236D01*
X0042954Y0186300D01*
X0040018Y0186300D01*
X0056765Y0186300D02*
X0056765Y0189236D01*
M02*
