G75*
%MOIN*%
%OFA0B0*%
%FSLAX25Y25*%
%IPPOS*%
%LPD*%
%AMOC8*
5,1,8,0,0,1.08239X$1,22.5*
%
%ADD10C,0.13398*%
%ADD11C,0.07300*%
%ADD12R,0.07300X0.07300*%
%ADD13R,0.08800X0.08800*%
%ADD14C,0.08800*%
%ADD15C,0.08200*%
%ADD16C,0.06400*%
D10*
X0016000Y0011000D03*
X0186000Y0011000D03*
X0186000Y0186000D03*
X0011000Y0186000D03*
D11*
X0106000Y0103500D03*
X0126000Y0141000D03*
X0126000Y0151000D03*
X0141000Y0036000D03*
X0141000Y0026000D03*
X0086000Y0026000D03*
X0086000Y0036000D03*
X0031000Y0036000D03*
X0031000Y0026000D03*
D12*
X0096000Y0103500D03*
D13*
X0031000Y0151000D03*
X0166000Y0161000D03*
X0166000Y0108500D03*
D14*
X0166000Y0094720D03*
X0166000Y0147220D03*
X0031000Y0164780D03*
D15*
X0066000Y0156000D03*
X0106000Y0156000D03*
X0086000Y0051000D03*
X0071000Y0051000D03*
X0031000Y0051000D03*
X0126000Y0051000D03*
X0141000Y0051000D03*
X0181000Y0051000D03*
D16*
X0048500Y0088200D02*
X0048500Y0093800D01*
X0038500Y0093800D02*
X0038500Y0088200D01*
X0028500Y0088200D02*
X0028500Y0093800D01*
X0018500Y0093800D02*
X0018500Y0088200D01*
X0018500Y0118200D02*
X0018500Y0123800D01*
X0028500Y0123800D02*
X0028500Y0118200D01*
X0038500Y0118200D02*
X0038500Y0123800D01*
X0048500Y0123800D02*
X0048500Y0118200D01*
M02*
