%
M48
M72
T01C0.02756
T02C0.03200
T03C0.03543
T04C0.04724
T05C0.12598
%
T01
X31000Y26000
X31000Y36000
X86000Y36000
X86000Y26000
X141000Y26000
X141000Y36000
X106000Y103500
X96000Y103500
X126000Y141000
X126000Y151000
T02
X48500Y121000
X38500Y121000
X28500Y121000
X18500Y121000
X18500Y91000
X28500Y91000
X38500Y91000
X48500Y91000
T03
X31000Y51000
X71000Y51000
X86000Y51000
X126000Y51000
X141000Y51000
X181000Y51000
X106000Y156000
X66000Y156000
T04
X31000Y151000
X31000Y164780
X166000Y161000
X166000Y147220
X166000Y108500
X166000Y94720
T05
X16000Y11000
X186000Y11000
X186000Y186000
X11000Y186000
M30
